<?xml version="1.0" encoding="UTF-8"?>
<svg version="1.1" xmlns="http://www.w3.org/2000/svg" width="300" height="231">
<path d="M0 0 C0.83939281 -0.00367669 1.67878561 -0.00735338 2.54361457 -0.01114148 C5.37256289 -0.02220547 8.20147453 -0.02602673 11.03044128 -0.02983093 C13.05215574 -0.03609348 15.07386903 -0.04274009 17.09558105 -0.04974365 C22.59975102 -0.06717159 28.1039123 -0.07771008 33.60810304 -0.08594918 C37.04444865 -0.09109501 40.48079154 -0.0971709 43.91713524 -0.10346031 C54.66153009 -0.12251648 65.40591804 -0.13674731 76.15032655 -0.14507228 C88.56637824 -0.15485048 100.98225192 -0.18118352 113.39824086 -0.22157317 C122.98639194 -0.25169703 132.57449189 -0.26653757 142.16268939 -0.26985329 C147.89343985 -0.27220784 153.62400024 -0.28122095 159.35470009 -0.30631447 C164.74487006 -0.32953524 170.134724 -0.33385257 175.52493095 -0.32355309 C177.50467604 -0.32305617 179.48443638 -0.32942225 181.46413422 -0.34310913 C184.16454107 -0.36073601 186.86380242 -0.35376756 189.56420898 -0.34057617 C190.74261934 -0.35703004 190.74261934 -0.35703004 191.94483596 -0.37381631 C196.91857234 -0.31505406 199.48168958 0.59128772 202.97257996 4.14717102 C205.31155163 7.72352289 205.29136727 10.40553607 204.71232605 14.5382843 C203.18012432 19.94195021 199.8642588 24.44693151 196.78507996 29.08467102 C195.45750469 31.13496531 194.13067354 33.18574164 192.80461121 35.23701477 C192.16217468 36.22427551 191.51973816 37.21153625 190.85783386 38.22871399 C189.04055391 41.04194431 187.24393339 43.86393085 185.48429871 46.71357727 C184.99791931 47.49805237 184.51153992 48.28252747 184.01042175 49.09077454 C182.7473001 51.20963583 182.7473001 51.20963583 182.97257996 54.14717102 C183.63355179 54.15081665 184.29452362 54.15446228 184.9755249 54.15821838 C191.87048692 54.20010943 198.76478739 54.26950205 205.65934753 54.35469055 C208.23056921 54.38287276 210.80187708 54.40410089 213.37321472 54.41816711 C217.07475322 54.4396336 220.77525835 54.48630668 224.47648621 54.53779602 C226.19406883 54.53963898 226.19406883 54.53963898 227.9463501 54.54151917 C234.47798492 54.66070836 238.77023856 55.05237521 243.97257996 59.14717102 C248.43112501 64.37235088 248.54757112 68.55507864 248.49015808 75.10884094 C248.500672 76.590578 248.500672 76.590578 248.51139832 78.10224915 C248.52897125 81.3610006 248.51735303 84.61887977 248.50382996 87.87763977 C248.50652613 90.15199957 248.5104096 92.42635825 248.51542664 94.70071411 C248.52132167 99.46789014 248.51276223 104.23476622 248.49406433 109.00190735 C248.47134007 115.09018354 248.48435692 121.17775181 248.50835419 127.2660017 C248.52286727 131.96485644 248.5181798 136.66354582 248.50784302 141.36240578 C248.50518758 143.60572202 248.50840354 145.84905362 248.51776123 148.09235191 C248.59035602 170.39802648 248.59035602 170.39802648 243.97257996 179.14717102 C243.68294373 179.77003998 243.3933075 180.39290894 243.09489441 181.03465271 C223.0424204 223.11210643 223.0424204 223.11210643 208.85965633 230.2036581 C205.20393826 231.39836748 201.77392681 231.44015584 197.97076416 231.43478394 C197.17034917 231.44143175 196.36993418 231.44807956 195.54526418 231.45492882 C192.8661352 231.47459659 190.18717346 231.4799969 187.50798035 231.48530579 C185.58596358 231.49620242 183.66395108 231.5078743 181.74194336 231.52026367 C176.5230037 231.55075507 171.30410811 231.56778253 166.08509755 231.58047986 C162.8247754 231.58856601 159.56446591 231.59874645 156.30415154 231.60949516 C146.10384825 231.64220484 135.90357571 231.66611122 125.7032271 231.67830902 C113.92659607 231.69257554 102.15056311 231.73649121 90.37413031 231.80581051 C81.27081784 231.85754951 72.16767575 231.88247875 63.06421846 231.88713115 C57.6267367 231.89053246 52.18986017 231.905441 46.75253487 231.94841194 C41.63953027 231.98811409 36.52755481 231.99458967 31.41444206 231.97551155 C29.53829696 231.9742437 27.66209972 231.98495247 25.78610229 232.00852585 C23.22329439 232.03889151 20.66417686 232.02603316 18.10137939 232.00241089 C17.35964118 232.02143654 16.61790296 232.04046219 15.85368782 232.06006438 C12.80263776 231.99313823 10.5522554 231.61929589 8.16037834 229.67119777 C5.39874558 226.61953872 3.66925662 224.3607218 3.32804871 220.17842102 C3.70965251 215.6035743 5.73686952 212.36699967 8.28507996 208.64717102 C8.72714783 207.97154114 9.1692157 207.29591125 9.62467957 206.59980774 C11.05220728 204.43340387 12.50799508 202.28867289 13.97257996 200.14717102 C14.47982605 199.4011261 14.98707214 198.65508118 15.50968933 197.88642883 C17.92700907 194.33704365 20.36173373 190.80095666 22.82023621 187.27998352 C24.90031036 184.40661145 24.90031036 184.40661145 25.97257996 182.14717102 C25.17157867 182.15383286 24.37057739 182.16049469 23.54530334 182.1673584 C15.98309248 182.227561 8.42099843 182.27319174 0.85861015 182.30260754 C-3.02895995 182.3182391 -6.91633143 182.33943106 -10.80378723 182.37348938 C-14.55798663 182.40617303 -18.31199541 182.42404291 -22.06632614 182.43180275 C-23.49601617 182.43733017 -24.92569621 182.44812392 -26.35530472 182.46436119 C-28.36325589 182.48625261 -30.37140036 182.48739742 -32.37947083 182.48774719 C-33.52086517 182.49440903 -34.66225952 182.50107086 -35.83824158 182.50793457 C-41.16257563 181.90563976 -45.010144 179.74015972 -48.33992004 175.58467102 C-48.83105286 174.98525696 -49.32218567 174.3858429 -49.82820129 173.76826477 C-52.74114798 169.83056811 -52.27482243 165.70119062 -52.37898254 160.98530579 C-52.40322296 160.03351944 -52.42746338 159.08173309 -52.45243835 158.10110474 C-52.66557963 149.23004568 -52.78918476 140.35740142 -52.88673401 131.48439121 C-52.95325573 125.53884621 -53.04776076 119.59693886 -53.21394348 113.65327454 C-54.56183002 64.20170034 -54.56183002 64.20170034 -39.02865601 43.88726807 C-35.38570136 38.89932589 -32.48908256 33.46096295 -29.46492004 28.08467102 C-27.8466118 25.30788545 -26.21622635 22.53886791 -24.57868958 19.77339172 C-23.51816504 17.97797743 -22.46748829 16.17671935 -21.42536926 14.37055969 C-20.90861633 13.48473206 -20.3918634 12.59890442 -19.85945129 11.68623352 C-19.40417053 10.89813293 -18.94888977 10.11003235 -18.47981262 9.29804993 C-13.56681753 2.02229152 -8.45427498 -0.00196725 0 0 Z " fill="#E27253" transform="translate(52.02742004394531,-0.1471710205078125)"/>
<path d="M0 0 C0.66242864 -0.00694553 1.32485727 -0.01389106 2.0073595 -0.02104706 C4.21383231 -0.03925656 6.41922251 -0.02907079 8.62573242 -0.01878357 C10.21292929 -0.02584512 11.80011943 -0.03459113 13.38729858 -0.04489136 C17.68897249 -0.06736741 21.99027816 -0.0644501 26.29198837 -0.05556989 C29.88553388 -0.05045549 33.47901046 -0.05775612 37.07254887 -0.06504196 C45.55029909 -0.08203487 54.02786928 -0.07848077 62.50561523 -0.06175232 C71.24789857 -0.04482485 79.98968282 -0.06067536 88.73191166 -0.0929752 C96.24292982 -0.11967339 103.75379264 -0.1269467 111.26485348 -0.11846012 C115.74867266 -0.11353237 120.23219145 -0.11573842 124.7159729 -0.13624763 C128.93182797 -0.15460892 133.146965 -0.14864115 137.36278152 -0.12404823 C138.90831774 -0.119042 140.45390871 -0.12252536 141.99940109 -0.13519669 C155.10925796 -0.23416643 155.10925796 -0.23416643 159.08921814 2.54165649 C161.72291675 6.30701779 161.99609295 9.26960882 161.89746094 13.71388245 C161.90315598 14.52588104 161.90885101 15.33787964 161.91471863 16.17448425 C161.92580832 18.85126952 161.8937876 21.52559661 161.86010742 24.2021637 C161.85652935 26.06633721 161.8551731 27.9305162 161.85594177 29.79469299 C161.85125305 33.69876547 161.82643341 37.60201036 161.78613281 41.50587463 C161.73516247 46.50625882 161.72369012 51.50573411 161.72596836 56.50634766 C161.72515196 60.35488029 161.70868772 64.20321484 161.68696404 68.05168152 C161.67742798 69.89523317 161.67150741 71.73880723 161.66928291 73.5823822 C161.66276599 76.16045729 161.63648016 78.73757604 161.60449219 81.31544495 C161.60653152 82.45489059 161.60653152 82.45489059 161.60861206 83.61735535 C161.52768867 88.08530756 160.89106302 90.94149458 158.16870117 94.5146637 C154.53257938 97.36535306 149.98459912 96.82046593 145.57104492 96.81544495 C144.32503258 96.82187263 144.32503258 96.82187263 143.05384827 96.82843018 C141.30137035 96.83416318 139.54886863 96.83468132 137.79638672 96.83033752 C135.11213853 96.8271707 132.42898559 96.85067232 129.74487305 96.87599182 C128.0410984 96.8782642 126.33732078 96.8789686 124.63354492 96.87794495 C123.42878761 96.89175957 123.42878761 96.89175957 122.19969177 96.90585327 C116.68665406 96.85992336 116.68665406 96.85992336 114.17407227 95.18507385 C112.33193607 92.12439007 112.67497722 90.0197536 113.16870117 86.5146637 C114.80922069 83.12249032 116.8628004 80.06257222 118.98120117 76.9521637 C126.50132959 66.663244 126.50132959 66.663244 128.16870117 54.5146637 C125.97675289 50.99188967 124.00895196 49.01801016 120.16870117 47.5146637 C117.24586535 47.21244133 117.24586535 47.21244133 113.97532654 47.25637817 C112.06777588 47.24613617 112.06777588 47.24613617 110.12168884 47.23568726 C108.71475191 47.23810655 107.30781526 47.24069082 105.90087891 47.24342346 C104.41748773 47.23903584 102.93409903 47.23373355 101.45071411 47.22758484 C98.25809154 47.21608838 95.06553531 47.2106257 91.87289238 47.20970345 C86.82674489 47.20776341 81.78073483 47.18971504 76.7346344 47.16894531 C64.20292936 47.11975223 51.67118708 47.08884635 39.1394043 47.06764221 C29.39695774 47.05113416 19.65462904 47.02836949 9.91226155 46.98462147 C4.89362742 46.96280435 -0.12478304 46.95479096 -5.14346135 46.9570142 C-8.2618845 46.95535083 -11.38016078 46.94132365 -14.49853134 46.92380142 C-15.9469528 46.91818886 -17.39540454 46.91772866 -18.8438282 46.92273903 C-20.81752659 46.9288519 -22.79125703 46.91493935 -24.76490784 46.89993286 C-25.87047311 46.89792153 -26.97603838 46.89591021 -28.11510563 46.89383793 C-30.83129883 46.5146637 -30.83129883 46.5146637 -32.71845913 45.13552761 C-33.83129883 43.5146637 -33.83129883 43.5146637 -33.703125 41.1955719 C-32.70578692 38.12870841 -31.40752139 35.46305177 -29.88208008 32.62013245 C-29.28073242 31.4992926 -28.67938477 30.37845276 -28.05981445 29.22364807 C-27.74439697 28.64445618 -27.42897949 28.06526428 -27.10400391 27.46852112 C-26.15506148 25.72288206 -25.22062094 23.96938501 -24.28637695 22.21583557 C-12.29670342 0.02921806 -12.29670342 0.02921806 0 0 Z " fill="#FEF9F7" transform="translate(125.831298828125,66.48533630371094)"/>
<path d="M0 0 C1.05656636 -0.00339833 1.05656636 -0.00339833 2.1344775 -0.00686532 C4.49436195 -0.01319482 6.85418881 -0.01237665 9.21408081 -0.0115509 C10.90598627 -0.01454294 12.59789105 -0.01794557 14.28979492 -0.02172852 C18.88459078 -0.03056546 23.47936801 -0.03290643 28.07417154 -0.0335443 C31.90656191 -0.03449337 35.73894793 -0.03817142 39.57133663 -0.0417164 C48.60785255 -0.04985883 57.64435851 -0.05230072 66.68087769 -0.05158997 C76.01493323 -0.05098835 85.34893113 -0.06155737 94.68297207 -0.07733363 C102.68981452 -0.09038637 110.69663807 -0.09577486 118.70349109 -0.09513456 C123.48893375 -0.09487902 128.27432514 -0.09776122 133.05975723 -0.10831261 C137.55605889 -0.11795621 142.05225982 -0.11809866 146.54856491 -0.11079597 C148.2022135 -0.10974564 149.85586825 -0.11213938 151.50950623 -0.11815643 C153.7595504 -0.12581604 156.00924137 -0.12127222 158.25927734 -0.11352539 C159.52062563 -0.11407016 160.78197392 -0.11461493 162.08154488 -0.1151762 C165.00265503 0.13371277 165.00265503 0.13371277 167.00265503 2.13371277 C167.73269289 6.2584267 166.36768342 8.62093904 164.0553894 11.99430847 C163.41053589 12.8986261 163.41053589 12.8986261 162.75265503 13.82121277 C161.8405729 15.14109442 160.92914475 16.46142818 160.01828003 17.78215027 C159.53165894 18.48049988 159.04503784 19.17884949 158.54367065 19.89836121 C155.26578917 24.65315887 152.11754213 29.49639576 148.93917847 34.31803894 C148.45481323 35.04740662 147.970448 35.77677429 147.47140503 36.52824402 C147.04279175 37.17640076 146.61417847 37.8245575 146.1725769 38.49235535 C145.00265503 40.13371277 145.00265503 40.13371277 143.00265503 42.13371277 C141.18314075 42.38704586 141.18314075 42.38704586 138.93693542 42.39199829 C138.0860585 42.39882629 137.23518158 42.4056543 136.35852051 42.41268921 C135.42293304 42.41013626 134.48734558 42.40758331 133.52340698 42.404953 C132.53949478 42.41017975 131.55558258 42.41540649 130.54185486 42.42079163 C128.39964206 42.43105286 126.25740418 42.43681571 124.11516762 42.43867302 C120.72306739 42.44232576 117.33126242 42.45902406 113.93922424 42.47943115 C104.29286189 42.53493786 94.64645499 42.56549333 84.99996948 42.5900116 C79.1037025 42.60590354 73.20764287 42.63614565 67.31148338 42.67477608 C65.06488436 42.68641762 62.81824821 42.69235635 60.57161903 42.6924572 C57.42381859 42.69264965 54.27658758 42.71094779 51.12887573 42.733078 C49.74067627 42.72621223 49.74067627 42.72621223 48.32443237 42.71920776 C42.02767052 42.789441 36.7363579 43.47024337 32.02609253 48.05949402 C27.6460154 54.40126446 23.67307211 60.93697091 19.75265503 67.57121277 C18.91939697 68.97778137 18.91939697 68.97778137 18.06930542 70.4127655 C15.23409849 75.23037198 12.48196927 80.07282329 9.85031128 85.00480652 C9.33952026 85.93043396 8.82872925 86.8560614 8.30245972 87.80973816 C7.33283684 89.56928853 6.39292353 91.34564147 5.48800659 93.139328 C4.15268574 95.52233595 3.0469968 97.31899749 1.00265503 99.13371277 C-3.43837969 100.25376916 -7.34338581 99.77081184 -11.58328247 98.13761902 C-12.1736731 97.66195496 -12.76406372 97.18629089 -13.37234497 96.69621277 C-13.97820435 96.24375183 -14.58406372 95.79129089 -15.20828247 95.32511902 C-21.85604338 87.18233764 -21.60496549 78.03424784 -21.56375122 68.00480652 C-21.56899589 66.4449934 -21.57527544 64.88518346 -21.58253479 63.32537842 C-21.59289593 60.07001221 -21.58843825 56.81508434 -21.57376099 53.55973816 C-21.55655276 49.40471596 -21.58011448 45.25107411 -21.61525059 41.09620571 C-21.63729004 37.87978089 -21.63576791 34.66368333 -21.62748528 31.4472065 C-21.62666984 29.91591436 -21.63345478 28.38459721 -21.6482563 26.85337639 C-21.77508529 11.36510351 -21.77508529 11.36510351 -15.99734497 5.13371277 C-10.83556778 0.22372958 -6.96452066 0.00924763 0 0 Z " fill="#FEF9F7" transform="translate(70.99734497070313,13.866287231445313)"/>
<path d="M0 0 C0.69650819 -0.00623996 1.39301637 -0.01247993 2.11063087 -0.01890898 C4.43232914 -0.03479758 6.75297144 -0.0222521 9.07467651 -0.00964355 C10.74393321 -0.01506645 12.41318511 -0.02219005 14.08242798 -0.03088379 C18.60711004 -0.04909744 23.13142672 -0.04205851 27.65611506 -0.02936745 C32.39215223 -0.01923299 37.12815836 -0.02863405 41.86419678 -0.03491211 C49.81494764 -0.04218579 57.76554979 -0.03260666 65.71627808 -0.0135498 C74.91069536 0.00823338 84.10475805 0.00115598 93.2991668 -0.02085543 C101.19400798 -0.03899954 109.08874235 -0.04157305 116.98359764 -0.03110075 C121.69868973 -0.0248623 126.41361504 -0.02404014 131.12869644 -0.0372467 C135.55950554 -0.04879075 139.9898566 -0.04080618 144.42061615 -0.01766968 C146.04761621 -0.01237546 147.67465475 -0.01390855 149.30163956 -0.02272034 C151.5206259 -0.03363164 153.73813912 -0.01996833 155.95703125 0 C157.82026881 0.00226215 157.82026881 0.00226215 159.72114754 0.00457001 C163.43855937 0.60232834 164.63202361 1.51515574 166.85153198 4.50793457 C167.52206424 9.12672985 166.553256 11.71416492 164.03512573 15.55480957 C163.43506714 16.48293457 162.83500854 17.41105957 162.21676636 18.36730957 C161.58061401 19.32121582 160.94446167 20.27512207 160.28903198 21.25793457 C159.67994995 22.19637207 159.07086792 23.13480957 158.44332886 24.10168457 C156.60362148 26.92062244 154.72833024 29.71360141 152.85153198 32.50793457 C152.25227905 33.44057129 151.65302612 34.37320801 151.03561401 35.33410645 C150.15752075 36.66538574 150.15752075 36.66538574 149.26168823 38.02355957 C148.49223877 39.21126953 148.49223877 39.21126953 147.70724487 40.42297363 C144.50725599 44.01827755 141.08701102 45.37830244 136.33335304 45.87707806 C135.02625059 45.87431268 133.71914814 45.8715473 132.37243652 45.86869812 C131.64043765 45.87126139 130.90843879 45.87382467 130.15425813 45.87646562 C127.71278999 45.88138887 125.27194662 45.86493524 122.83053589 45.84851074 C121.07597875 45.84766415 119.32142054 45.84814024 117.56686401 45.84983826 C112.81107926 45.85069839 108.05552186 45.83306965 103.29978991 45.81211638 C98.32700792 45.79335264 93.35422062 45.79159938 88.38140869 45.78804016 C78.96799418 45.77871882 69.55468428 45.75410378 60.14131582 45.72399169 C49.42313658 45.6904505 38.70495233 45.67396237 27.98673368 45.65890539 C5.94160807 45.62755434 -16.10342338 45.57479206 -38.14846802 45.50793457 C-38.38960735 39.85936878 -36.98058698 37.19914907 -33.52346802 32.88293457 C-32.51403975 31.57398165 -31.50769196 30.26264912 -30.50393677 28.94934082 C-29.96301392 28.24438477 -29.42209106 27.53942871 -28.86477661 26.81311035 C-27.01250533 24.32532295 -25.25616139 21.78727264 -23.51174927 19.22277832 C-22.90089478 18.32704102 -22.29004028 17.43130371 -21.66067505 16.50842285 C-20.46533071 14.74755301 -19.277212 12.98175135 -18.09719849 11.21057129 C-17.54048462 10.39733398 -16.98377075 9.58409668 -16.41018677 8.74621582 C-15.92509644 8.02474365 -15.4400061 7.30327148 -14.94021606 6.55993652 C-10.57538023 1.56110219 -6.54104692 0.00793666 0 0 Z " fill="#FEF9F7" transform="translate(111.14846801757813,173.4920654296875)"/>
<path d="M0 0 C1.11069554 -0.00596161 1.11069554 -0.00596161 2.24382937 -0.01204365 C4.7020299 -0.0215972 7.15964484 -0.00989154 9.61782837 0.00190735 C11.38914198 -0.00052279 13.16045422 -0.00424426 14.9317627 -0.00915527 C19.7247326 -0.01853337 24.51749721 -0.009167 29.31045103 0.00417686 C34.32767476 0.01551341 39.34488872 0.01138241 44.36212158 0.00942993 C52.78007352 0.00854814 61.19794474 0.01960734 69.61587524 0.03804016 C79.35673798 0.05924725 89.09748285 0.06270824 98.83836401 0.0564782 C108.20789804 0.05079204 117.57739046 0.0564187 126.94691849 0.06765175 C130.93652743 0.07230346 134.92611097 0.07316918 138.91572189 0.0710659 C143.60579664 0.06918786 148.29575067 0.07724937 152.98579788 0.0931263 C154.71039582 0.09738214 156.43500598 0.09821103 158.15960693 0.0954361 C160.50579008 0.09223259 162.85160831 0.10124903 165.19775391 0.11352539 C166.51290167 0.11557826 167.82804943 0.11763113 169.18305016 0.11974621 C172.21792603 0.3742218 172.21792603 0.3742218 174.21792603 2.3742218 C173.70669623 8.91232201 169.32609551 14.40747147 166.03042603 19.8742218 C165.36978149 21.00215149 164.70913696 22.13008118 164.0284729 23.29219055 C156.42896366 35.97054259 156.42896366 35.97054259 149.21792603 38.3742218 C147.57967741 38.46522332 145.93795432 38.49887175 144.29718018 38.49879456 C143.28216934 38.50135757 142.26715851 38.50392059 141.22138977 38.50656128 C140.10859146 38.50446152 138.99579315 38.50236176 137.84927368 38.50019836 C136.67668503 38.5020665 135.50409637 38.50393463 134.29597473 38.50585938 C131.74560389 38.50986748 129.19522946 38.51193859 126.6448555 38.51232147 C122.61060766 38.51346229 118.57645123 38.52630388 114.54223633 38.54188538 C113.52069535 38.54574466 113.52069535 38.54574466 112.47851717 38.5496819 C111.0859565 38.55494839 109.6933959 38.56023387 108.30083537 38.56553793 C98.90957788 38.60064198 89.51843428 38.62719898 80.12710571 38.62471008 C73.79104817 38.62312117 67.45530259 38.63916329 61.11934507 38.67541671 C57.76726545 38.6938719 54.41570664 38.70322407 51.06358719 38.69094086 C47.32369235 38.68135379 43.58514084 38.70243848 39.84536743 38.73066711 C38.73661758 38.72047043 37.62786774 38.71027374 36.48551941 38.69976807 C30.18362586 38.64475384 30.18362586 38.64475384 25.05371094 41.85194397 C24.44790192 42.68429565 23.8420929 43.51664734 23.21792603 44.3742218 C21.44357664 46.14857118 18.863884 45.52952186 16.46060181 45.55122375 C15.22907379 45.56405899 13.99754578 45.57689423 12.72869873 45.59011841 C11.37354939 45.59828494 10.01839554 45.60572884 8.66323853 45.61250305 C7.98388119 45.61657858 7.30452385 45.62065411 6.60457993 45.62485313 C3.00906424 45.64572942 -0.58641309 45.66002444 -4.18197632 45.66938782 C-7.9002884 45.68045724 -11.61800281 45.71485768 -15.33610344 45.75455952 C-18.19111257 45.78067702 -21.04597825 45.78907523 -23.90109634 45.7926693 C-25.27187259 45.79754779 -26.6426419 45.80919774 -28.01330185 45.82770729 C-29.9307089 45.85199092 -31.84840523 45.84872457 -33.76596069 45.8441925 C-34.85770599 45.85005875 -35.94945129 45.85592499 -37.07427979 45.86196899 C-39.78207397 45.3742218 -39.78207397 45.3742218 -41.62756348 43.52258301 C-43.25156387 40.50057547 -43.30748058 38.77045011 -42.78207397 35.3742218 C-41.25485841 32.9873936 -39.79395979 31.00501166 -37.96957397 28.8742218 C-36.95983117 27.64817642 -35.95073585 26.42159755 -34.94223022 25.1945343 C-34.42032104 24.56837219 -33.89841187 23.94221008 -33.36068726 23.29707336 C-31.79432704 21.38914681 -30.27954839 19.45076294 -28.77816772 17.4914093 C-28.29646118 16.8642804 -27.81475464 16.23715149 -27.31845093 15.59101868 C-26.40123565 14.39408527 -25.48684562 13.19497968 -24.57577515 11.99336243 C-17.89226646 3.37471975 -10.85252555 -0.00138182 0 0 Z " fill="#FEF8F6" transform="translate(64.78207397460938,124.62577819824219)"/>
</svg>
